<?xml version="1.0" encoding="UTF-8" standalone="no"?>
<svg
   xmlns:dc="http://purl.org/dc/elements/1.1/"
   xmlns:cc="http://creativecommons.org/ns#"
   xmlns:rdf="http://www.w3.org/1999/02/22-rdf-syntax-ns#"
   xmlns:svg="http://www.w3.org/2000/svg"
   xmlns="http://www.w3.org/2000/svg"
   xmlns:sodipodi="http://sodipodi.sourceforge.net/DTD/sodipodi-0.dtd"
   xmlns:inkscape="http://www.inkscape.org/namespaces/inkscape"
   inkscape:version="1.0 (4035a4fb49, 2020-05-01)"
   sodipodi:docname="weather-tornado-32.svg"
   id="svg4"
   version="1.1"
   height="32"
   width="32">
  <metadata
     id="metadata10">
    <rdf:RDF>
      <cc:Work
         rdf:about="">
        <dc:format>image/svg+xml</dc:format>
        <dc:type
           rdf:resource="http://purl.org/dc/dcmitype/StillImage" />
        <dc:title></dc:title>
      </cc:Work>
    </rdf:RDF>
  </metadata>
  <defs
     id="defs8" />
  <sodipodi:namedview
     inkscape:current-layer="svg4"
     inkscape:window-maximized="0"
     inkscape:window-y="23"
     inkscape:window-x="26"
     inkscape:cy="15.11629"
     inkscape:cx="17.194882"
     inkscape:zoom="31.5"
     inkscape:pagecheckerboard="true"
     inkscape:showpageshadow="false"
     showgrid="false"
     id="namedview6"
     inkscape:window-height="1376"
     inkscape:window-width="2560"
     inkscape:pageshadow="2"
     inkscape:pageopacity="0"
     guidetolerance="10"
     gridtolerance="10"
     objecttolerance="10"
     borderopacity="1"
     bordercolor="#666666"
     pagecolor="#ffffff" />
  <path
     id="path2"
     fill="#2e3436"
     overflow="visible"
     font-family="sans-serif"
     font-weight="400"
     color="#000000"
     style="line-height:normal;font-variant-ligatures:normal;font-variant-position:normal;font-variant-caps:normal;font-variant-numeric:normal;font-variant-alternates:normal;font-feature-settings:normal;text-indent:0;text-align:start;text-decoration:none;text-decoration-line:none;text-decoration-style:solid;text-decoration-color:#000000;text-transform:none;text-orientation:mixed;white-space:normal;shape-padding:0;isolation:auto;mix-blend-mode:normal;solid-color:#000000;solid-opacity:1;stroke-width:2;marker:none;fill:#3584e4"
     d="m 4.95075,1.9728895 c -2.682,0 -2.682,4.024 0,4.024 h 0.574 c 0.256,0 0.444,0.228 0.06,0.454 -1.266,1.076 -0.706,3.5740005 1.366,3.546 h 4.526 c 0.414,0.018 0.3,0.3040005 0.168,0.4160005 -1.04,0.84 -0.966,2.608 0.24,3.306 0.18,0.094 0.108,0.246 -0.08,0.246 h -0.844 c -2.796,-0.104 -2.796,4.144 0,4.04 h 2.598 c 0.216,0 0.36,0.25 0.072,0.416 -1.04,0.864 -0.934,2.63 0.276,3.326 0.354,0.204 0.134,0.368 -0.028,0.496 -1.196,0.706 -1.298,2.48 -0.22,3.328 0.25,0.196 0.1,0.372 -0.092,0.372 h -0.586 c -2.724,0 -2.724,4.084 0,4.084 h 2.04 c 2.032,0.038 2.694,-2.406 1.448,-3.54 -0.258,-0.314 -0.062,-0.47 0.078,-0.47 h 2.484 c 2.708,0 2.708,-4.064 0,-4.064 h -0.58 c -0.284,0 -0.306,-0.21 -0.152,-0.346 1.006,-0.76 1.046,-2.318 0.128,-3.142 -0.3,-0.3 -0.15,-0.46 0.08,-0.46 h 0.536 c 2.014,0.008 2.614,-2.39 1.416,-3.504 -0.228,-0.226 -0.176,-0.496 0.072,-0.496 h 2.512 c 2.082,0.03 2.654,-2.5 1.352,-3.574 -0.164,-0.164 -0.162,-0.4340005 0.144,-0.4340005 h 2.512 c 2.68,0 2.68,-4.024 0,-4.024 h -0.646 c -0.238,0 -0.308,-0.2 -0.136,-0.34 1.45,-1.004 0.928,-3.688 -1.22,-3.66 z" />
</svg>
