<?xml version="1.0" encoding="UTF-8" standalone="no"?>
<svg
   xmlns:dc="http://purl.org/dc/elements/1.1/"
   xmlns:cc="http://creativecommons.org/ns#"
   xmlns:rdf="http://www.w3.org/1999/02/22-rdf-syntax-ns#"
   xmlns:svg="http://www.w3.org/2000/svg"
   xmlns="http://www.w3.org/2000/svg"
   xmlns:xlink="http://www.w3.org/1999/xlink"
   xmlns:sodipodi="http://sodipodi.sourceforge.net/DTD/sodipodi-0.dtd"
   xmlns:inkscape="http://www.inkscape.org/namespaces/inkscape"
   inkscape:version="1.0 (4035a4fb49, 2020-05-01)"
   sodipodi:docname="weather-snow-32.svg"
   id="svg9"
   version="1.1"
   height="32"
   width="32">
  <metadata
     id="metadata15">
    <rdf:RDF>
      <cc:Work
         rdf:about="">
        <dc:format>image/svg+xml</dc:format>
        <dc:type
           rdf:resource="http://purl.org/dc/dcmitype/StillImage" />
        <dc:title></dc:title>
      </cc:Work>
    </rdf:RDF>
  </metadata>
  <defs
     id="defs13" />
  <sodipodi:namedview
     inkscape:current-layer="svg9"
     inkscape:window-maximized="0"
     inkscape:window-y="23"
     inkscape:window-x="26"
     inkscape:cy="15.695193"
     inkscape:cx="15.890373"
     inkscape:zoom="22.273864"
     inkscape:pagecheckerboard="true"
     inkscape:showpageshadow="false"
     showgrid="false"
     id="namedview11"
     inkscape:window-height="1376"
     inkscape:window-width="2560"
     inkscape:pageshadow="2"
     inkscape:pageopacity="0"
     guidetolerance="10"
     gridtolerance="10"
     objecttolerance="10"
     borderopacity="1"
     bordercolor="#666666"
     pagecolor="#ffffff" />
  <g
     style="fill:#ffffff"
     id="g7"
     transform="matrix(2,0,0,2,-662.99298,-175.99193)">
    <path
       stroke-linecap="round"
       fill="#2e3436"
       overflow="visible"
       font-family="sans-serif"
       font-weight="400"
       color="#000000"
       style="line-height:normal;font-variant-ligatures:normal;font-variant-position:normal;font-variant-caps:normal;font-variant-numeric:normal;font-variant-alternates:normal;font-feature-settings:normal;text-indent:0;text-align:start;text-decoration:none;text-decoration-line:none;text-decoration-style:solid;text-decoration-color:#000000;text-transform:none;text-orientation:mixed;shape-padding:0;isolation:auto;mix-blend-mode:normal;marker:none;fill:#ffffff"
       d="M 339.492,88.492 A 0.5,0.5 0 0 0 339,89 v 1.533 l -1.252,-0.717 a 0.5,0.5 0 1 0 -0.496,0.868 l 1.748,1 v 8.683 l -1.746,0.987 a 0.5,0.5 0 1 0 0.492,0.87 L 339,101.516 V 103 a 0.5,0.5 0 1 0 1,0 v -1.484 l 1.254,0.709 a 0.50017622,0.50017622 0 1 0 0.492,-0.871 L 340,100.367 v -8.683 l 1.748,-1 a 0.5,0.5 0 1 0 -0.496,-0.868 L 340,90.533 V 89 a 0.5,0.5 0 0 0 -0.508,-0.508 z"
       id="a" />
    <use
       style="fill:#ffffff"
       y="0"
       x="0"
       id="use3"
       width="100%"
       transform="rotate(-60,339.5,96)"
       xlink:href="#a"
       height="100%" />
    <use
       style="fill:#ffffff"
       y="0"
       x="0"
       id="use5"
       width="100%"
       transform="rotate(-120,339.5,96)"
       xlink:href="#a"
       height="100%" />
  </g>
</svg>
