<?xml version="1.0" encoding="UTF-8"?>
<svg height="128px" viewBox="0 0 128 128" width="128px" xmlns="http://www.w3.org/2000/svg" xmlns:xlink="http://www.w3.org/1999/xlink">
    <linearGradient id="a" gradientUnits="userSpaceOnUse" x1="-16.418886" x2="-16.418886" y1="80.50203800792" y2="49.887587">
        <stop offset="0" stop-color="#62a0ea"/>
        <stop offset="1" stop-color="#99c1f1"/>
    </linearGradient>
    <path d="m 79.492188 24.347656 c -11.300782 0.011719 -21.558594 6.605469 -26.265626 16.878906 c -3.0625 -1.578124 -6.453124 -2.40625 -9.898437 -2.414062 c -11.414063 0.015625 -20.867187 8.867188 -21.625 20.257812 c -0.023437 0 -0.050781 0 -0.074219 -0.003906 c -5.929687 0 -11.019531 3.574219 -13.253906 8.679688 h -1.210938 v 1.253906 c 0 11 7.835938 19 18.835938 19 h 72 c 14 0 22 -9 22 -22 v -1.144531 h -1.023438 c -1.753906 -4.949219 -5.648437 -8.839844 -10.601562 -10.582031 c 0.023438 -0.328126 0.039062 -0.660157 0.050781 -0.992188 c 0 -15.980469 -12.953125 -28.933594 -28.933593 -28.933594 z m 0 0" fill="#3584e4"/>
    <path d="m 79.492188 18.0625 c -11.300782 0.011719 -21.558594 6.605469 -26.265626 16.878906 c -3.0625 -1.578125 -6.453124 -2.40625 -9.898437 -2.414062 c -11.414063 0.011718 -20.867187 8.867187 -21.625 20.257812 c -0.023437 -0.003906 -0.050781 -0.003906 -0.074219 -0.003906 c -7.988281 0 -14.46875 6.476562 -14.46875 14.464844 c 0 7.992187 6.480469 14.46875 14.46875 14.46875 h 81.011719 c 9.585937 0 17.359375 -7.773438 17.359375 -17.359375 c -0.007812 -7.371094 -4.667969 -13.933594 -11.625 -16.367188 c 0.023438 -0.332031 0.039062 -0.664062 0.050781 -0.992187 c 0 -15.980469 -12.953125 -28.933594 -28.933593 -28.933594 z m 0 0" fill="url(#a)"/>
    <path d="m 106.667969 110.347656 l -32.984375 -61.996094 c -0.949219 -1.722656 -2.664063 -2.679687 -4.574219 -2.679687 s -3.632813 1.148437 -4.597656 2.871094 l -32.738281 61.996093 c -0.769532 1.527344 -0.78125 3.632813 0.167968 5.164063 c 0.949219 1.53125 2.476563 2.296875 4.386719 2.296875 h 65.722656 c 1.910157 0 3.636719 -0.957031 4.40625 -2.488281 c 0.960938 -1.53125 0.96875 -3.445313 0.210938 -5.164063 z m 0 0" fill="#ed333b"/>
    <path d="m 39.230469 110.160156 c -0.621094 1.019532 -0.007813 1.839844 1.019531 1.839844 h 57.886719 c 1.027343 0 1.648437 -0.820312 1.035156 -1.839844 l -29.121094 -54.433594 c -0.613281 -1.023437 -1.433593 -1.023437 -1.847656 0 z m 0 0" fill="#ffffff"/>
    <path d="m 69.070312 103.257812 c -2.015624 0 -3.566406 -1.578124 -3.566406 -3.628906 c 0 -2.207031 1.394532 -3.628906 3.566406 -3.628906 c 2.167969 0 3.410157 1.421875 3.566407 3.628906 c 0 2.050782 -1.398438 3.628906 -3.566407 3.628906 z m -1.136718 -11.726562 l -1.964844 -15.71875 h 6.203125 l -1.964844 18.3125 z m 0 0" fill="#121312"/>
</svg>
