<?xml version="1.0" encoding="UTF-8" standalone="no"?>
<svg
   xmlns:dc="http://purl.org/dc/elements/1.1/"
   xmlns:cc="http://creativecommons.org/ns#"
   xmlns:rdf="http://www.w3.org/1999/02/22-rdf-syntax-ns#"
   xmlns:svg="http://www.w3.org/2000/svg"
   xmlns="http://www.w3.org/2000/svg"
   xmlns:sodipodi="http://sodipodi.sourceforge.net/DTD/sodipodi-0.dtd"
   xmlns:inkscape="http://www.inkscape.org/namespaces/inkscape"
   width="16"
   height="16"
   version="1.1"
   id="svg10"
   sodipodi:docname="weather-few-clouds-small.svg"
   inkscape:version="1.0.1 (3bc2e813f5, 2020-09-07)">
  <metadata
     id="metadata16">
    <rdf:RDF>
      <cc:Work
         rdf:about="">
        <dc:format>image/svg+xml</dc:format>
        <dc:type
           rdf:resource="http://purl.org/dc/dcmitype/StillImage" />
      </cc:Work>
    </rdf:RDF>
  </metadata>
  <defs
     id="defs14" />
  <sodipodi:namedview
     pagecolor="#ffffff"
     bordercolor="#666666"
     borderopacity="1"
     objecttolerance="10"
     gridtolerance="10"
     guidetolerance="10"
     inkscape:pageopacity="0"
     inkscape:pageshadow="2"
     inkscape:window-width="1440"
     inkscape:window-height="836"
     id="namedview12"
     showgrid="false"
     inkscape:zoom="45.9375"
     inkscape:cx="8"
     inkscape:cy="9.7414966"
     inkscape:window-x="0"
     inkscape:window-y="0"
     inkscape:window-maximized="1"
     inkscape:current-layer="svg10"
     inkscape:document-rotation="0" />
  <g
     id="g844">
    <path
       d="M 9.5,10 A 2.5,2.5 0 0 0 7,12.5 c 0,0.218 0.041,0.423 0.094,0.625 A 1.549,1.549 0 0 0 6.5,13 a 1.5,1.5 0 1 0 0,3 h 8 a 1.5,1.5 0 1 0 0,-3 2,2 0 0 0 -2,-2 c -0.316,0 -0.61,0.088 -0.875,0.219 A 2.47,2.47 0 0 0 9.5,10 Z"
       style="fill:#898e99;fill-opacity:1;marker:none"
       color="#000000"
       overflow="visible"
       id="path2" />
    <path
       d="m 6.988,4.006 c -2.194,0 -4,1.805 -4,4 0,1.895 1.349,3.494 3.13,3.896 l 10e-4,-0.01 c 0.478,-2.089 2.14,-3.004 4.045,-2.81 0.192,0.045 0.372,0.115 0.547,0.195 0.014,0.006 0.03,0.01 0.043,0.016 0.141,-0.407 0.235,-0.835 0.235,-1.287 0,-2.195 -1.806,-4 -4,-4 z"
       style="line-height:normal;-inkscape-font-specification:Sans;font-variant-ligatures:normal;font-variant-position:normal;font-variant-caps:normal;font-variant-numeric:normal;font-variant-alternates:normal;font-feature-settings:normal;text-indent:0;text-align:start;text-decoration:none;text-decoration-line:none;text-decoration-style:solid;text-decoration-color:#000000;text-transform:none;text-orientation:mixed;shape-padding:0;isolation:auto;mix-blend-mode:normal;fill:#f6d32d;fill-opacity:1;marker:none"
       color="#bebebe"
       font-weight="400"
       font-family="Sans"
       overflow="visible"
       id="path4" />
    <path
       d="M 0,7.5 C 0,7.223 0.223,7 0.5,7 h 1 C 1.777,7 2,7.223 2,7.5 v 1 C 2,8.777 1.777,9 1.5,9 h -1 A 0.499,0.499 0 0 1 0,8.5 Z m 12,0 C 12,7.223 12.223,7 12.5,7 h 1 C 13.777,7 14,7.223 14,7.5 v 1 C 14,8.777 13.777,9 13.5,9 h -1 A 0.499,0.499 0 0 1 12,8.5 Z M 1.697,12.596 a 0.499,0.499 0 0 1 0,-0.707 l 0.707,-0.707 a 0.499,0.499 0 0 1 0.707,0 l 0.707,0.707 a 0.499,0.499 0 0 1 0,0.707 l -0.707,0.707 a 0.499,0.499 0 0 1 -0.707,0 z m 8.485,-8.485 a 0.499,0.499 0 0 1 0,-0.707 l 0.707,-0.707 a 0.499,0.499 0 0 1 0.707,0 l 0.707,0.707 a 0.499,0.499 0 0 1 0,0.707 l -0.707,0.707 a 0.499,0.499 0 0 1 -0.707,0 z M 6.5,3 A 0.499,0.499 0 0 1 6,2.5 v -1 C 6,1.223 6.223,1 6.5,1 h 1 C 7.777,1 8,1.223 8,1.5 v 1 C 8,2.777 7.777,3 7.5,3 Z M 3.111,4.818 a 0.499,0.499 0 0 1 -0.707,0 L 1.697,4.111 a 0.499,0.499 0 0 1 0,-0.707 L 2.404,2.697 a 0.499,0.499 0 0 1 0.707,0 l 0.707,0.707 a 0.499,0.499 0 0 1 0,0.707 z"
       id="path6"
       style="fill:#f6d32d;fill-opacity:1" />
  </g>
</svg>
