<?xml version="1.0" encoding="UTF-8" standalone="no"?>
<svg
   xmlns:dc="http://purl.org/dc/elements/1.1/"
   xmlns:cc="http://creativecommons.org/ns#"
   xmlns:rdf="http://www.w3.org/1999/02/22-rdf-syntax-ns#"
   xmlns:svg="http://www.w3.org/2000/svg"
   xmlns="http://www.w3.org/2000/svg"
   xmlns:sodipodi="http://sodipodi.sourceforge.net/DTD/sodipodi-0.dtd"
   xmlns:inkscape="http://www.inkscape.org/namespaces/inkscape"
   width="16"
   height="16"
   version="1.1"
   id="svg8"
   sodipodi:docname="weather-clear-night-symbolic.svg"
   inkscape:version="1.0.1 (3bc2e813f5, 2020-09-07)">
  <metadata
     id="metadata14">
    <rdf:RDF>
      <cc:Work
         rdf:about="">
        <dc:format>image/svg+xml</dc:format>
        <dc:type
           rdf:resource="http://purl.org/dc/dcmitype/StillImage" />
      </cc:Work>
    </rdf:RDF>
  </metadata>
  <defs
     id="defs12" />
  <sodipodi:namedview
     pagecolor="#ffffff"
     bordercolor="#666666"
     borderopacity="1"
     objecttolerance="10"
     gridtolerance="10"
     guidetolerance="10"
     inkscape:pageopacity="0"
     inkscape:pageshadow="2"
     inkscape:window-width="1440"
     inkscape:window-height="836"
     id="namedview10"
     showgrid="false"
     inkscape:zoom="45.9375"
     inkscape:cx="8"
     inkscape:cy="8"
     inkscape:window-x="0"
     inkscape:window-y="0"
     inkscape:window-maximized="1"
     inkscape:current-layer="svg8" />
  <g
     id="g843">
    <path
       d="M 6.815,1.107 C 3.519,1.672 0.992,4.548 0.992,8 c 0,3.854 3.148,7 7.002,7 a 6.96,6.96 0 0 0 4.58,-1.723 C 8.8,12.295 5.992,8.86 5.992,4.785 A 8.69,8.69 0 0 1 6.815,1.107 Z"
       style="color:#bebebe;font-weight:400;line-height:normal;font-family:Sans;-inkscape-font-specification:Sans;text-indent:0;text-align:start;text-decoration:none;text-decoration-line:none;text-transform:none;fill:#f6d32d;marker:none;fill-opacity:1"
       overflow="visible"
       id="path2" />
    <path
       d="M 7.994,1 C 7.592,1 7.199,1.042 6.814,1.107 A 8.69,8.69 0 0 0 5.992,4.785 c 0,4.075 2.807,7.51 6.582,8.492 A 6.983,6.983 0 0 0 14.994,8 c 0,-3.854 -3.146,-7 -7,-7 z"
       style="color:#bebebe;font-weight:400;line-height:normal;font-family:Sans;-inkscape-font-specification:Sans;text-indent:0;text-align:start;text-decoration:none;text-decoration-line:none;text-transform:none;fill:#474747;marker:none"
       overflow="visible"
       opacity="0.35"
       id="path4" />
  </g>
</svg>
