<?xml version="1.0" encoding="UTF-8"?>
<svg height="128px" viewBox="0 0 128 128" width="128px" xmlns="http://www.w3.org/2000/svg" xmlns:xlink="http://www.w3.org/1999/xlink">
    <radialGradient id="a" cx="280.994202" cy="488.848419" gradientTransform="matrix(0.347005 0 0 0.342234 -33.50647 -129.482063)" gradientUnits="userSpaceOnUse" r="224">
        <stop offset="0" stop-color="#fdfacf"/>
        <stop offset="0.4" stop-color="#f9f06b"/>
        <stop offset="1" stop-color="#f6d32d"/>
    </radialGradient>
    <linearGradient id="b" gradientUnits="userSpaceOnUse" x1="79" x2="79" y1="111.162453" y2="90">
        <stop offset="0" stop-color="#eef4fc"/>
        <stop offset="1" stop-color="#ffffff"/>
    </linearGradient>
    <path d="m 20 20 h 88 v 88 h -88 z m 0 0" fill="#f5c211"/>
    <path d="m 126 64 l -62 62 l -62 -62 l 62 -62 z m 0 0" fill="#f6d32d"/>
    <path d="m 112 64 c 0 26.507812 -21.492188 48 -48 48 s -48 -21.492188 -48 -48 s 21.492188 -48 48 -48 s 48 21.492188 48 48 z m 0 0" fill="url(#a)"/>
    <path d="m 90 72 c -7.8125 0.007812 -14.902344 4.566406 -18.15625 11.667969 c -2.117188 -1.089844 -4.464844 -1.664063 -6.84375 -1.667969 c -7.890625 0.007812 -14.425781 6.128906 -14.949219 14 c -0.015625 0 -0.035156 0 -0.050781 0 c -4.097656 0 -7.617188 2.46875 -9.160156 6 h -0.839844 v 4 c 0 5.523438 4.476562 10 10 10 h 56 c 6.628906 0 12 -5.371094 12 -12 v -4 h -0.707031 c -1.210938 -3.421875 -3.90625 -6.109375 -7.328125 -7.3125 c 0.015625 -0.230469 0.027344 -0.457031 0.035156 -0.6875 c 0 -11.046875 -8.953125 -20 -20 -20 z m 0 0" fill="#dceafa"/>
    <path d="m 90 68 c -7.8125 0.007812 -14.902344 4.566406 -18.15625 11.667969 c -2.117188 -1.089844 -4.464844 -1.664063 -6.84375 -1.667969 c -7.890625 0.007812 -14.425781 6.128906 -14.949219 14 c -0.015625 0 -0.035156 0 -0.050781 0 c -5.523438 0 -10 4.476562 -10 10 s 4.476562 10 10 10 h 56 c 6.628906 0 12 -5.371094 12 -12 c -0.003906 -5.09375 -3.226562 -9.628906 -8.035156 -11.3125 c 0.015625 -0.230469 0.027344 -0.457031 0.035156 -0.6875 c 0 -11.046875 -8.953125 -20 -20 -20 z m 0 0" fill="url(#b)"/>
</svg>
