<?xml version="1.0" encoding="UTF-8" standalone="no"?>
<svg
   xmlns:dc="http://purl.org/dc/elements/1.1/"
   xmlns:cc="http://creativecommons.org/ns#"
   xmlns:rdf="http://www.w3.org/1999/02/22-rdf-syntax-ns#"
   xmlns:svg="http://www.w3.org/2000/svg"
   xmlns="http://www.w3.org/2000/svg"
   xmlns:sodipodi="http://sodipodi.sourceforge.net/DTD/sodipodi-0.dtd"
   xmlns:inkscape="http://www.inkscape.org/namespaces/inkscape"
   width="64px"
   height="64px"
   viewBox="0 0 64 64"
   version="1.1"
   id="svg46"
   sodipodi:docname="weather-showers-scattered-small.svg"
   inkscape:version="1.0.1 (3bc2e813f5, 2020-09-07)">
  <metadata
     id="metadata50">
    <rdf:RDF>
      <cc:Work
         rdf:about="">
        <dc:format>image/svg+xml</dc:format>
        <dc:type
           rdf:resource="http://purl.org/dc/dcmitype/StillImage" />
      </cc:Work>
    </rdf:RDF>
  </metadata>
  <sodipodi:namedview
     pagecolor="#ffffff"
     bordercolor="#666666"
     borderopacity="1"
     objecttolerance="10"
     gridtolerance="10"
     guidetolerance="10"
     inkscape:pageopacity="0"
     inkscape:pageshadow="2"
     inkscape:window-width="640"
     inkscape:window-height="480"
     id="namedview48"
     showgrid="false"
     inkscape:current-layer="svg46" />
  <defs
     id="defs33">
    <linearGradient
       id="linear0"
       gradientUnits="userSpaceOnUse"
       x1="7.164"
       y1="86.174004"
       x2="120"
       y2="86.174004"
       gradientTransform="matrix(0.5,0,0,0.5,0,-19)">
      <stop
         offset="0"
         style="stop-color:rgb(86.274511%,91.764706%,98.039216%);stop-opacity:1;"
         id="stop2" />
      <stop
         offset="0.081"
         style="stop-color:rgb(92.941177%,95.686275%,99.215686%);stop-opacity:1;"
         id="stop4" />
      <stop
         offset="0.151"
         style="stop-color:rgb(76.47059%,85.882354%,96.470588%);stop-opacity:1;"
         id="stop6" />
      <stop
         offset="0.793"
         style="stop-color:rgb(86.274511%,91.764706%,98.039216%);stop-opacity:1;"
         id="stop8" />
      <stop
         offset="0.917"
         style="stop-color:rgb(94.509804%,96.862745%,99.215686%);stop-opacity:1;"
         id="stop10" />
      <stop
         offset="1"
         style="stop-color:rgb(86.274511%,91.764706%,98.039216%);stop-opacity:1;"
         id="stop12" />
    </linearGradient>
    <linearGradient
       id="linear1"
       gradientUnits="userSpaceOnUse"
       x1="63.581001"
       y1="110.501999"
       x2="63.581001"
       y2="79.888"
       gradientTransform="matrix(0.5,0,0,0.5,0,-19)">
      <stop
         offset="0"
         style="stop-color:rgb(92.941177%,96.470588%,98.823529%);stop-opacity:1;"
         id="stop15" />
      <stop
         offset="1"
         style="stop-color:rgb(98.039216%,98.823529%,99.607843%);stop-opacity:1;"
         id="stop17" />
    </linearGradient>
    <linearGradient
       id="linear2"
       gradientUnits="userSpaceOnUse"
       x1="7.164"
       y1="86.174004"
       x2="120"
       y2="86.174004"
       gradientTransform="matrix(0.5,0,0,0.5,0,-19)">
      <stop
         offset="0"
         style="stop-color:rgb(86.274511%,91.764706%,98.039216%);stop-opacity:1;"
         id="stop20" />
      <stop
         offset="0.081"
         style="stop-color:rgb(92.941177%,95.686275%,99.215686%);stop-opacity:1;"
         id="stop22" />
      <stop
         offset="0.151"
         style="stop-color:rgb(76.47059%,85.882354%,96.470588%);stop-opacity:1;"
         id="stop24" />
      <stop
         offset="0.793"
         style="stop-color:rgb(86.274511%,91.764706%,98.039216%);stop-opacity:1;"
         id="stop26" />
      <stop
         offset="0.917"
         style="stop-color:rgb(94.509804%,96.862745%,99.215686%);stop-opacity:1;"
         id="stop28" />
      <stop
         offset="1"
         style="stop-color:rgb(86.274511%,91.764706%,98.039216%);stop-opacity:1;"
         id="stop30" />
    </linearGradient>
  </defs>
  <g
     id="surface1">
    <path
       style=" stroke:none;fill-rule:nonzero;fill:rgb(38.431373%,62.7451%,91.764706%);fill-opacity:1;"
       d="M 22 44 L 16 50 L 16.011719 50.007812 C 15 51.007812 14.695312 52.523438 15.238281 53.839844 C 15.777344 55.15625 17.0625 56.015625 18.484375 56.015625 C 20.425781 56.015625 22 54.441406 22 52.5 Z M 35.011719 47.988281 L 29.011719 53.988281 L 29.027344 53.992188 C 28.015625 54.992188 27.710938 56.507812 28.25 57.824219 C 28.792969 59.140625 30.074219 60 31.5 60 C 33.441406 60 35.015625 58.425781 35.011719 56.488281 Z M 46 42.992188 L 41.753906 47.238281 L 41.765625 47.242188 C 41.046875 47.949219 40.832031 49.023438 41.214844 49.953125 C 41.597656 50.882812 42.507812 51.492188 43.515625 51.492188 C 44.886719 51.492188 46 50.378906 46 49.007812 Z M 46 42.992188 "
       id="path35" />
    <path
       id="path39"
       style="stroke:none;fill-rule:nonzero;fill:#deddda"
       d="M 39.746094 5.03125 C 34.097656 5.039062 28.96875 8.332031 26.613281 13.46875 C 25.082031 12.679688 23.386719 12.265625 21.664062 12.261719 C 15.957031 12.269531 11.230469 16.695312 10.851562 22.390625 L 10.816406 22.390625 C 6.8203122 22.390625 3.578125 25.628906 3.578125 29.621094 C 3.578125 29.70543 3.5869789 29.787456 3.5898438 29.871094 L 3.5820312 29.871094 L 3.5820312 30.5 C 3.5820312 36 7.5 40 13 40 L 49 40 C 56 40 60 35.5 60 29 L 60 28.425781 L 59.988281 28.425781 C 59.990678 28.341919 60 28.260223 60 28.175781 C 59.996094 24.492188 57.664062 21.210938 54.1875 19.992188 C 54.199219 19.828125 54.207031 19.660156 54.210938 19.496094 C 54.210938 11.507812 47.738281 5.03125 39.746094 5.03125 z " />
  </g>
</svg>
