<?xml version="1.0" encoding="UTF-8" standalone="no"?>
<svg
   xmlns:dc="http://purl.org/dc/elements/1.1/"
   xmlns:cc="http://creativecommons.org/ns#"
   xmlns:rdf="http://www.w3.org/1999/02/22-rdf-syntax-ns#"
   xmlns:svg="http://www.w3.org/2000/svg"
   xmlns="http://www.w3.org/2000/svg"
   xmlns:sodipodi="http://sodipodi.sourceforge.net/DTD/sodipodi-0.dtd"
   xmlns:inkscape="http://www.inkscape.org/namespaces/inkscape"
   width="16"
   height="16"
   version="1.1"
   id="svg10"
   sodipodi:docname="weather-few-clouds-night-symbolic.svg"
   inkscape:version="1.0.1 (3bc2e813f5, 2020-09-07)">
  <metadata
     id="metadata16">
    <rdf:RDF>
      <cc:Work
         rdf:about="">
        <dc:format>image/svg+xml</dc:format>
        <dc:type
           rdf:resource="http://purl.org/dc/dcmitype/StillImage" />
      </cc:Work>
    </rdf:RDF>
  </metadata>
  <defs
     id="defs14" />
  <sodipodi:namedview
     pagecolor="#ffffff"
     bordercolor="#666666"
     borderopacity="1"
     objecttolerance="10"
     gridtolerance="10"
     guidetolerance="10"
     inkscape:pageopacity="0"
     inkscape:pageshadow="2"
     inkscape:window-width="1440"
     inkscape:window-height="836"
     id="namedview12"
     showgrid="false"
     inkscape:zoom="45.9375"
     inkscape:cx="8"
     inkscape:cy="8"
     inkscape:window-x="0"
     inkscape:window-y="0"
     inkscape:window-maximized="1"
     inkscape:current-layer="svg10" />
  <g
     id="g847">
    <path
       d="M 9.5,10 A 2.5,2.5 0 0 0 7,12.5 c 0,0.218 0.041,0.423 0.094,0.625 A 1.549,1.549 0 0 0 6.5,13 a 1.5,1.5 0 1 0 0,3 h 8 a 1.5,1.5 0 1 0 0,-3 2,2 0 0 0 -2,-2 c -0.316,0 -0.61,0.088 -0.875,0.219 A 2.47,2.47 0 0 0 9.5,10 Z"
       style="fill:#898e99;marker:none;fill-opacity:1"
       color="#000000"
       overflow="visible"
       id="path2" />
    <path
       d="M 6.82,1.107 C 3.526,1.672 0.999,4.548 0.999,8 c 0,2.33 1.155,4.394 2.916,5.668 0.311,-0.813 1.064,-1.394 1.942,-1.639 A 3.806,3.806 0 0 1 7.37,9.475 8.69,8.69 0 0 1 5.997,4.785 c 0,-1.314 0.3,-2.556 0.823,-3.678 z"
       style="line-height:normal;-inkscape-font-specification:Sans;text-indent:0;text-align:start;text-decoration:none;text-decoration-line:none;text-transform:none;fill:#f6d32d;marker:none;fill-opacity:1"
       color="#bebebe"
       font-weight="400"
       font-family="Sans"
       overflow="visible"
       id="path4" />
    <path
       d="M 8,1 C 7.598,1 7.205,1.042 6.82,1.107 A 8.69,8.69 0 0 0 5.998,4.785 8.69,8.69 0 0 0 7.371,9.475 3.567,3.567 0 0 1 9.501,8.76 c 0.997,0 1.82,0.484 2.486,1.125 0.18,-0.035 0.315,-0.125 0.513,-0.125 0.775,0 1.474,0.288 2.02,0.756 C 14.825,9.734 15,8.888 15,8 15,4.146 11.854,1 8,1 Z"
       style="line-height:normal;-inkscape-font-specification:Sans;text-indent:0;text-align:start;text-decoration:none;text-decoration-line:none;text-transform:none;fill:#474747;marker:none"
       color="#bebebe"
       font-weight="400"
       font-family="Sans"
       overflow="visible"
       opacity="0.35"
       id="path6" />
  </g>
</svg>
