<?xml version="1.0" encoding="UTF-8"?>
<svg height="128px" viewBox="0 0 128 128" width="128px" xmlns="http://www.w3.org/2000/svg" xmlns:xlink="http://www.w3.org/1999/xlink">
    <linearGradient id="a" gradientUnits="userSpaceOnUse" x1="63.581118" x2="63.581118" y1="110.50203800792" y2="79.887587">
        <stop offset="0" stop-color="#eef4fc"/>
        <stop offset="1" stop-color="#ffffff"/>
    </linearGradient>
    <path d="m 79.492188 54.347656 c -11.300782 0.011719 -21.558594 6.605469 -26.265626 16.878906 c -3.0625 -1.578124 -6.453124 -2.40625 -9.898437 -2.414062 c -11.414063 0.015625 -20.867187 8.867188 -21.625 20.257812 c -0.023437 0 -0.050781 0 -0.074219 -0.003906 c -5.929687 0 -11.019531 3.574219 -13.253906 8.679688 h -1.210938 v 1.253906 c 0 11 7.835938 19 18.835938 19 h 72 c 14 0 22 -9 22 -22 v -1.144531 h -1.023438 c -1.753906 -4.949219 -5.648437 -8.839844 -10.601562 -10.582031 c 0.023438 -0.328126 0.039062 -0.660157 0.050781 -0.992188 c 0 -15.980469 -12.953125 -28.933594 -28.933593 -28.933594 z m 0 0" fill="#dceafa"/>
    <path d="m 79.492188 48.0625 c -11.300782 0.011719 -21.558594 6.605469 -26.265626 16.878906 c -3.0625 -1.578125 -6.453124 -2.40625 -9.898437 -2.414062 c -11.414063 0.011718 -20.867187 8.867187 -21.625 20.257812 c -0.023437 -0.003906 -0.050781 -0.003906 -0.074219 -0.003906 c -7.988281 0 -14.46875 6.476562 -14.46875 14.464844 c 0 7.992187 6.480469 14.46875 14.46875 14.46875 h 81.011719 c 9.585937 0 17.359375 -7.773438 17.359375 -17.359375 c -0.007812 -7.371094 -4.667969 -13.933594 -11.625 -16.367188 c 0.023438 -0.332031 0.039062 -0.664062 0.050781 -0.992187 c 0 -15.980469 -12.953125 -28.933594 -28.933593 -28.933594 z m 0 0" fill="url(#a)"/>
</svg>
