<?xml version="1.0" encoding="UTF-8"?>
<svg width="64" height="64" version="1.1" viewBox="0 0 64 64" xmlns="http://www.w3.org/2000/svg">
    <g transform="matrix(.5 0 0 .5 -.00017703 -.00018098)" fill="none" stroke-linecap="round">
        <path d="m95.52 39.625c-8.832 5.3594-27.371 7.7227-43.969 5.6055-16.594-2.1172-26.461-8.1016-23.395-14.199 3.0703-6.0938 18.18-10.535 35.844-10.535" stroke="#62a0ea" stroke-width="10"/>
        <path d="m95.52 37.625c-8.832 5.3594-27.371 7.7227-43.969 5.6055-16.594-2.1172-26.461-8.1016-23.395-14.199 3.0703-6.0938 18.18-10.535 35.844-10.535" stroke="#99c1f1" stroke-width="2"/>
        <g stroke="#62a0ea" stroke-width="10">
            <path d="m95.52 29.625c-7.3594 4.4648-21.676 6.9375-36.27 6.2656s-26.594-4.3594-30.406-9.3438c-3.8086-4.9805 1.3203-10.277 13-13.418 11.68-3.1367 27.605-3.5039 40.355-0.92578"/>
            <path d="m89.734 50.266c-8 2.8008-19.266 4.1445-30.484 3.625-11.219-0.51562-21.113-2.832-26.77-6.2656"/>
            <path d="m82.199 62.293c-14.266 2.8828-32.285 2.0547-43.934-2.0273"/>
            <path d="m89.734 70.266c-9.1953 3.2227-22.594 4.4805-35.152 3.3008"/>
            <path d="m89.734 80.266c-6.8242 2.3906-16.082 3.7344-25.734 3.7344"/>
            <path d="m82.199 92.293c-5.5352 1.1172-11.812 1.707-18.199 1.707"/>
            <path d="m73.418 103.57c-6.168 0.57812-12.668 0.57812-18.836 0"/>
            <path d="m73.418 113.57c-3.0703 0.28906-6.2383 0.43359-9.418 0.43359"/>
            <path d="m65.117 123.99c-0.37109 0.0039-0.74609 0.00781-1.1172 0.00781"/>
        </g>
        <g stroke="#99c1f1" stroke-width="2">
            <path d="m95.52 27.625c-7.3594 4.4648-21.676 6.9375-36.27 6.2656s-26.594-4.3594-30.406-9.3438c-3.8086-4.9805 1.3203-10.277 13-13.418 11.68-3.1367 27.605-3.5039 40.355-0.92578"/>
            <path d="m89.734 48.266c-8 2.8008-19.266 4.1445-30.484 3.625-11.219-0.51562-21.113-2.832-26.77-6.2656"/>
            <path d="m82.199 60.293c-14.266 2.8828-32.285 2.0547-43.934-2.0273"/>
            <path d="m89.734 68.266c-9.1953 3.2227-22.594 4.4805-35.152 3.3008"/>
            <path d="m89.734 78.266c-6.8242 2.3906-16.082 3.7344-25.734 3.7344"/>
            <path d="m82.199 90.293c-5.5352 1.1172-11.812 1.707-18.199 1.707"/>
            <path d="m73.418 101.57c-6.168 0.57812-12.668 0.57812-18.836 0"/>
            <path d="m73.418 111.57c-3.0703 0.28906-6.2383 0.43359-9.418 0.43359"/>
            <path d="m65.117 121.99c-0.37109 0.0039-0.74609 0.00781-1.1172 0.00781"/>
        </g>
    </g>
</svg>
