<?xml version="1.0" encoding="UTF-8"?>
<svg width="64" height="64" version="1.1" viewBox="0 0 64 64" xmlns="http://www.w3.org/2000/svg">
    <linearGradient id="a" x1="83.262" x2="70.963" y1="12.476" y2="45.379" gradientTransform="matrix(.5 0 0 .5 -.00016238 .00014539)" gradientUnits="userSpaceOnUse">
        <stop stop-color="#26a269" offset="0"/>
        <stop stop-color="#57e389" offset="1"/>
    </linearGradient>
    <g transform="matrix(.5 0 0 .5 -.00016233 .00014542)" fill="none" stroke="#99c1f1" stroke-linecap="round" stroke-width="6">
        <path d="m7.0703 61.012h86.422"/>
        <path transform="rotate(-90,-86,-86)" d="m-201.9 93.492c0 5.5586-2.9648 10.695-7.7773 13.473-4.8125 2.7812-10.742 2.7812-15.555 0-4.8164-2.7773-7.7812-7.9141-7.7812-13.473"/>
        <path d="m7.0703 73.023h92.547"/>
        <path transform="matrix(0,1,1,0,0,-172)" d="m281.57 84.477c6.8516 6.8555 8.25 17.453 3.4023 25.848-4.8438 8.3945-14.723 12.484-24.082 9.9766-9.3633-2.5078-15.871-10.992-15.871-20.684"/>
        <path d="m7.0703 85.031h52.91"/>
        <path transform="matrix(0,1,1,0,0,-172)" d="m268.71 50.766c4.6484 1.2422 7.5742 5.8359 6.7383 10.574-0.83593 4.7383-5.1562 8.0547-9.9492 7.6328-4.793-0.41797-8.4727-4.4336-8.4727-9.2422"/>
    </g>
    <path d="m43.414 6.508c-1.832 1.0039-3.6133 2.1504-5.0528 3.6641-2.3906 2.5098-3.7266 5.9922-3.625 9.4571-0.04102-2.7324 0.89844-5.4688 2.6074-7.6016 1.0625-1.3262 2.4141-2.4199 3.9336-3.1817 0.90235 0.61133 1.5508 1.584 1.7676 2.6524 0.17969 0.87696 0.07227 1.8008-0.22656 2.6465-0.30078 0.84571-0.78906 1.6152-1.3633 2.3027-0.63086 0.75196-1.3652 1.4121-2.0117 2.1484-0.64844 0.73828-1.2207 1.5781-1.4356 2.5352-0.22266 0.98242-0.04687 2.0371 0.44141 2.918 0.51758 0.9336 1.3809 1.6699 2.3867 2.0332-1.8535-0.21484-3.6641-0.78906-5.3047-1.6797-3.1895-1.7363-5.7188-4.7715-6.5391-8.3086-0.41992-1.8066-0.39258-3.7324 0.21094-5.4844 0.60352-1.752 1.8047-3.3164 3.4121-4.2383 0.99414-0.57031 2.1524-0.89063 3.291-0.75977 0.88282 0.10156 1.7324 0.47656 2.4024 1.0606 0.76172-1.5918 2.2871-2.7969 4.0098-3.1719 0.55274-0.12109 1.1465-0.15625 1.6699 0.056641 0.26172 0.10547 0.5 0.27539 0.67188 0.5 0.17188 0.22461 0.27148 0.50586 0.26172 0.78711-0.0059 0.19727-0.06445 0.38867-0.1582 0.5625-0.09375 0.17188-0.2207 0.32617-0.36524 0.45899-0.28906 0.26563-0.64063 0.45313-0.98438 0.64258z" fill="url(#a)" stroke-width=".5"/>
    <path d="m43.34 3.4025c-0.04297 0-0.08789 0.00781-0.13281 0.00781 0.25195 0.011719 0.50196 0.050782 0.73633 0.14648 0.26172 0.10547 0.5 0.27539 0.67188 0.49805 0.17188 0.22461 0.27148 0.50586 0.26172 0.78906-0.0059 0.19531-0.06445 0.39063-0.1582 0.5625-0.09375 0.17188-0.2207 0.32617-0.36524 0.45899-0.28906 0.26758-0.64063 0.45313-0.98438 0.64258-1.832 1.0039-3.6113 2.1524-5.0528 3.6641-2.3906 2.5098-3.7246 5.9922-3.625 9.4571-0.02735-1.8672 0.41211-3.7324 1.2324-5.4102 0.61719-1.4922 1.4981-2.877 2.6133-4.0469 1.4414-1.5117 3.2207-2.6602 5.0528-3.6641 0.3457-0.18945 0.69531-0.375 0.98438-0.64258 0.14453-0.13281 0.27148-0.28711 0.36524-0.45899 0.09375-0.17188 0.1543-0.36719 0.16016-0.5625 0.0098-0.2832-0.0918-0.56445-0.26367-0.78906-0.17188-0.22266-0.41016-0.39258-0.67188-0.49805-0.26172-0.10547-0.54102-0.15039-0.82422-0.1543zm-7.6856 2.1816c-0.05273-0.00195-0.10352 0.00195-0.15625 0.0039 0.12109 0.0039 0.24219 0.00976 0.36328 0.023435 0.88282 0.10156 1.7324 0.47656 2.4024 1.0606 0.02148-0.04297 0.04883-0.082031 0.06836-0.12305-0.64453-0.51172-1.4316-0.84375-2.25-0.9375-0.14258-0.015625-0.28516-0.02539-0.42774-0.027345zm5.7988 3.2617c-0.04297 0.021485-0.08398 0.046875-0.12891 0.070313 0.85352 0.61328 1.4668 1.5508 1.6758 2.5801 0.17969 0.87891 0.07422 1.8027-0.22656 2.6484-0.30078 0.84571-0.78906 1.6152-1.3633 2.3027-0.62891 0.75196-1.3633 1.4121-2.0117 2.1504-0.64844 0.73633-1.2188 1.5762-1.4356 2.5332-0.2207 0.98242-0.04492 2.0391 0.44141 2.918 0.49805 0.89844 1.3184 1.6094 2.2734 1.9863 0.11133 0.01367 0.22266 0.03321 0.33398 0.04492-1.0039-0.36133-1.8691-1.0977-2.3867-2.0313-0.48633-0.87891-0.66211-1.9356-0.44141-2.918 0.2168-0.95704 0.78711-1.7969 1.4356-2.5352 0.64844-0.73633 1.3828-1.3965 2.0117-2.1484 0.57422-0.6875 1.0625-1.457 1.3633-2.3027 0.30078-0.8457 0.40625-1.7695 0.22656-2.6484-0.2168-1.0664-0.86524-2.0391-1.7676-2.6504z" fill="#57e389" stroke-width=".5"/>
    <g fill="none" stroke="#c8def7" stroke-linecap="round">
        <path d="m3.535 36h46.274"/>
        <path d="m42.238 54.276c3.4277 3.4277 8.7266 4.125 12.924 1.7012 4.1973-2.4219 6.2422-7.3614 4.9883-12.041-1.2539-4.6817-5.4961-7.9356-10.342-7.9356"/>
        <path d="m3.535 30h43.211"/>
        <path d="m46.746 14.444c2.7793 0 5.3477 1.4824 6.7363 3.8887 1.3906 2.4082 1.3906 5.3731 0 7.7793-1.3887 2.4063-3.957 3.8887-6.7363 3.8887"/>
        <path d="m3.535 42h26.455"/>
        <path d="m25.383 47.842c0.6211 2.3242 2.918 3.7871 5.2871 3.3692 2.3691-0.41797 4.0274-2.5781 3.8164-4.9746-0.20898-2.3965-2.2168-4.2363-4.6211-4.2363"/>
    </g>
</svg>
