<?xml version="1.0" encoding="UTF-8" standalone="no"?>
<svg
   xmlns:dc="http://purl.org/dc/elements/1.1/"
   xmlns:cc="http://creativecommons.org/ns#"
   xmlns:rdf="http://www.w3.org/1999/02/22-rdf-syntax-ns#"
   xmlns:svg="http://www.w3.org/2000/svg"
   xmlns="http://www.w3.org/2000/svg"
   xmlns:sodipodi="http://sodipodi.sourceforge.net/DTD/sodipodi-0.dtd"
   xmlns:inkscape="http://www.inkscape.org/namespaces/inkscape"
   width="64px"
   height="64px"
   viewBox="0 0 64 64"
   version="1.1"
   id="svg43"
   sodipodi:docname="weather-tornado-small.svg"
   inkscape:version="1.0.1 (3bc2e813f5, 2020-09-07)">
  <metadata
     id="metadata49">
    <rdf:RDF>
      <cc:Work
         rdf:about="">
        <dc:format>image/svg+xml</dc:format>
        <dc:type
           rdf:resource="http://purl.org/dc/dcmitype/StillImage" />
      </cc:Work>
    </rdf:RDF>
  </metadata>
  <defs
     id="defs47" />
  <sodipodi:namedview
     pagecolor="#ffffff"
     bordercolor="#666666"
     borderopacity="1"
     objecttolerance="10"
     gridtolerance="10"
     guidetolerance="10"
     inkscape:pageopacity="0"
     inkscape:pageshadow="2"
     inkscape:window-width="640"
     inkscape:window-height="480"
     id="namedview45"
     showgrid="true"
     inkscape:current-layer="svg43">
    <inkscape:grid
       type="xygrid"
       id="grid63" />
  </sodipodi:namedview>
  <g
     inkscape:label="weather tornado alert wind danger"
     transform="matrix(4,0,0,4,-963.9809,-1107.9398)"
     id="g10643"
     style="display:inline;enable-background:new">
    <title
       id="title14308">tornado</title>
    <rect
       style="color:#bebebe;display:inline;overflow:visible;visibility:visible;fill:none;stroke:none;stroke-width:1.781;marker:none;enable-background:new"
       id="rect10637"
       y="277"
       x="241"
       height="16"
       width="16" />
    <path
       transform="translate(-110.9998,105)"
       style="color:#000000;font-style:normal;font-variant:normal;font-weight:normal;font-stretch:normal;font-size:medium;line-height:normal;font-family:sans-serif;font-variant-ligatures:normal;font-variant-position:normal;font-variant-caps:normal;font-variant-numeric:normal;font-variant-alternates:normal;font-feature-settings:normal;text-indent:0;text-align:start;text-decoration:none;text-decoration-line:none;text-decoration-style:solid;text-decoration-color:#000000;letter-spacing:normal;word-spacing:normal;text-transform:none;writing-mode:lr-tb;direction:ltr;text-orientation:mixed;dominant-baseline:auto;baseline-shift:baseline;text-anchor:start;white-space:normal;shape-padding:0;clip-rule:nonzero;display:inline;overflow:visible;visibility:visible;opacity:1;isolation:auto;mix-blend-mode:normal;color-interpolation:sRGB;color-interpolation-filters:linearRGB;solid-color:#000000;solid-opacity:1;vector-effect:none;fill:#99c1f1;fill-opacity:1;fill-rule:nonzero;stroke:none;stroke-width:2;stroke-linecap:round;stroke-linejoin:round;stroke-miterlimit:4;stroke-dasharray:none;stroke-dashoffset:0;stroke-opacity:1;marker:none;paint-order:normal;color-rendering:auto;image-rendering:auto;shape-rendering:auto;text-rendering:auto;enable-background:accumulate"
       d="m 353.97461,172.99414 c -1.34115,0 -1.34115,2.01172 0,2.01172 h 0.28711 c 0.1284,0 0.22244,0.11423 0.0297,0.22735 -0.6324,0.53798 -0.35266,1.78629 0.68321,1.77265 h 2.26367 c 0.20636,0.009 0.14957,0.1523 0.0834,0.20767 -0.52029,0.41959 -0.48267,1.30413 0.11977,1.65354 0.0906,0.0473 0.0545,0.12316 -0.0391,0.12316 h -0.4238 c -1.39738,-0.052 -1.39738,2.07153 0,2.01954 h 1.2988 c 0.10825,0 0.17952,0.12528 0.0363,0.20799 -0.52003,0.43231 -0.46652,1.31503 0.13834,1.66319 0.17681,0.10208 0.0664,0.18404 -0.0145,0.24778 -0.59816,0.35291 -0.64846,1.24056 -0.11044,1.66466 0.12552,0.098 0.0515,0.18513 -0.0457,0.18513 h -0.29103 c -1.36197,0 -1.36197,2.04296 0,2.04296 h 1.01954 c 1.01675,0.0184 1.34804,-1.20311 0.72474,-1.77124 -0.12877,-0.15577 -0.0313,-0.23462 0.0389,-0.23462 h 1.24217 c 1.35416,0 1.35416,-2.03124 0,-2.03124 h -0.28905 c -0.14296,0 -0.15413,-0.10582 -0.0773,-0.17347 0.5037,-0.37939 0.52306,-1.15855 0.0641,-1.57098 -0.15017,-0.15017 -0.0744,-0.23016 0.0405,-0.23016 h 0.26753 c 1.00722,0.004 1.30773,-1.19515 0.70855,-1.75144 -0.11375,-0.11376 -0.0881,-0.24856 0.0356,-0.24856 h 1.25581 c 1.04149,0.0148 1.32755,-1.25004 0.67622,-1.78689 -0.0823,-0.0823 -0.0812,-0.21702 0.0719,-0.21702 h 1.25582 c 1.34115,0 1.34115,-2.01172 0,-2.01172 h -0.32222 c -0.11907,0 -0.15394,-0.10081 -0.0684,-0.17099 0.72532,-0.50089 0.4641,-1.84312 -0.60982,-1.82897 z"
       id="path10654"
       inkscape:connector-curvature="0"
       sodipodi:nodetypes="sscccccccccccccccsscccssccccccccccsscccs" />
  </g>
</svg>
