<?xml version="1.0" encoding="UTF-8"?>
<svg width="64" height="64" version="1.1" viewBox="0 0 64 64" xmlns="http://www.w3.org/2000/svg">
    <linearGradient id="a" x1="-16.419" x2="-16.419" y1="80.502" y2="49.888" gradientTransform="matrix(.5 0 0 .5 -8.3506e-5 -.00026272)" gradientUnits="userSpaceOnUse">
        <stop stop-color="#62a0ea" offset="0"/>
        <stop stop-color="#99c1f1" offset="1"/>
    </linearGradient>
    <g transform="matrix(.5 0 0 .5 -8.3545e-5 -.00026273)" fill="none" stroke-linecap="round">
        <path d="m28.512 118.49 8.0234-25.426" stroke="#99c1f1" stroke-width="4"/>
        <path d="m28.129 118.39 8.0234-25.426" stroke="#c8def7"/>
        <path d="m42.512 118.49 8.0234-25.426" stroke="#99c1f1" stroke-width="4"/>
        <path d="m42.129 118.39 8.0234-25.426" stroke="#c8def7"/>
        <path d="m56.512 118.49 8.0234-25.426" stroke="#99c1f1" stroke-width="4"/>
        <path d="m56.129 118.39 8.0234-25.426" stroke="#c8def7"/>
        <path d="m70.512 118.49 8.0234-25.426" stroke="#99c1f1" stroke-width="4"/>
        <path d="m70.129 118.39 8.0234-25.426" stroke="#c8def7"/>
        <path d="m84.512 118.49 8.0234-25.426" stroke="#99c1f1" stroke-width="4"/>
        <path d="m84.129 118.39 8.0234-25.426" stroke="#c8def7"/>
    </g>
    <path d="m39.746 12.174c-5.6504 0.0059-10.779 3.3027-13.133 8.4395-1.5313-0.78906-3.2266-1.2031-4.9492-1.207-5.707 0.0078-10.434 4.4336-10.813 10.129-0.01172 0-0.02539 0-0.03711-2e-3 -2.9648 0-5.5098 1.7871-6.627 4.3398h-0.60547v0.62695c0 5.5 3.918 9.5 9.418 9.5h36c7 0 11-4.5 11-11v-0.57227h-0.51172c-0.87696-2.4746-2.8242-4.4199-5.3008-5.291 0.0117-0.16406 0.01955-0.33008 0.0254-0.4961 0-7.9902-6.4766-14.467-14.467-14.467z" fill="#3584e4" stroke-width=".5"/>
    <path d="m39.746 9.031c-5.6504 0.00586-10.779 3.3027-13.133 8.4395-1.5313-0.78906-3.2266-1.2031-4.9492-1.207-5.707 0.0059-10.434 4.4336-10.813 10.129-0.01172-0.0019-0.02539-0.0019-0.03711-0.0019-3.9941 0-7.2344 3.2383-7.2344 7.2324 0 3.9961 3.2402 7.2344 7.2344 7.2344h40.506c4.793 0 8.6797-3.8867 8.6797-8.6797-4e-3 -3.6856-2.334-6.9668-5.8125-8.1836 0.0117-0.16602 0.01955-0.33203 0.0254-0.4961 0-7.9902-6.4766-14.467-14.467-14.467z" fill="url(#a)" stroke-width=".5"/>
</svg>
