<?xml version="1.0" encoding="UTF-8"?>
<svg xmlns="http://www.w3.org/2000/svg" xmlns:xlink="http://www.w3.org/1999/xlink" width="64px" height="64px" viewBox="0 0 64 64" version="1.1">
<defs>
<linearGradient id="linear0" gradientUnits="userSpaceOnUse" x1="7.164" y1="56.174" x2="120" y2="56.174" gradientTransform="matrix(0.5,0,0,0.5,0,0)">
<stop offset="0" style="stop-color:rgb(20.784314%,51.764709%,89.411765%);stop-opacity:1;"/>
<stop offset="0.091" style="stop-color:rgb(41.960785%,64.705884%,92.54902%);stop-opacity:1;"/>
<stop offset="0.173" style="stop-color:rgb(20.784314%,51.764709%,89.411765%);stop-opacity:1;"/>
<stop offset="0.835" style="stop-color:rgb(20.784314%,51.764709%,89.411765%);stop-opacity:1;"/>
<stop offset="0.922" style="stop-color:rgb(55.29412%,72.549021%,94.117647%);stop-opacity:1;"/>
<stop offset="1" style="stop-color:rgb(20.784314%,51.764709%,89.411765%);stop-opacity:1;"/>
</linearGradient>
</defs>
<g id="surface1">
<path style="fill:none;stroke-width:4;stroke-linecap:round;stroke-linejoin:miter;stroke:rgb(60.000002%,75.686276%,94.509804%);stroke-opacity:1;stroke-miterlimit:4;" d="M 28.515625 118.492188 L 36.53125 93.0625 " transform="matrix(0.5,0,0,0.5,0,0)"/>
<path style="fill:none;stroke-width:1;stroke-linecap:round;stroke-linejoin:miter;stroke:rgb(78.431374%,87.058824%,96.862745%);stroke-opacity:1;stroke-miterlimit:4;" d="M 28.132812 118.390625 L 36.148438 92.96875 " transform="matrix(0.5,0,0,0.5,0,0)"/>
<path style="fill:none;stroke-width:4;stroke-linecap:round;stroke-linejoin:miter;stroke:rgb(60.000002%,75.686276%,94.509804%);stroke-opacity:1;stroke-miterlimit:4;" d="M 42.515625 118.492188 L 50.53125 93.0625 " transform="matrix(0.5,0,0,0.5,0,0)"/>
<path style="fill:none;stroke-width:1;stroke-linecap:round;stroke-linejoin:miter;stroke:rgb(78.431374%,87.058824%,96.862745%);stroke-opacity:1;stroke-miterlimit:4;" d="M 42.132812 118.390625 L 50.148438 92.96875 " transform="matrix(0.5,0,0,0.5,0,0)"/>
<path style="fill:none;stroke-width:4;stroke-linecap:round;stroke-linejoin:miter;stroke:rgb(60.000002%,75.686276%,94.509804%);stroke-opacity:1;stroke-miterlimit:4;" d="M 56.515625 118.492188 L 64.53125 93.0625 " transform="matrix(0.5,0,0,0.5,0,0)"/>
<path style="fill:none;stroke-width:1;stroke-linecap:round;stroke-linejoin:miter;stroke:rgb(78.431374%,87.058824%,96.862745%);stroke-opacity:1;stroke-miterlimit:4;" d="M 56.132812 118.390625 L 64.148438 92.96875 " transform="matrix(0.5,0,0,0.5,0,0)"/>
<path style="fill:none;stroke-width:4;stroke-linecap:round;stroke-linejoin:miter;stroke:rgb(60.000002%,75.686276%,94.509804%);stroke-opacity:1;stroke-miterlimit:4;" d="M 70.515625 118.492188 L 78.53125 93.0625 " transform="matrix(0.5,0,0,0.5,0,0)"/>
<path style="fill:none;stroke-width:1;stroke-linecap:round;stroke-linejoin:miter;stroke:rgb(78.431374%,87.058824%,96.862745%);stroke-opacity:1;stroke-miterlimit:4;" d="M 70.132812 118.390625 L 78.148438 92.96875 " transform="matrix(0.5,0,0,0.5,0,0)"/>
<path style="fill:none;stroke-width:4;stroke-linecap:round;stroke-linejoin:miter;stroke:rgb(60.000002%,75.686276%,94.509804%);stroke-opacity:1;stroke-miterlimit:4;" d="M 84.515625 118.492188 L 92.53125 93.0625 " transform="matrix(0.5,0,0,0.5,0,0)"/>
<path style="fill:none;stroke-width:1;stroke-linecap:round;stroke-linejoin:miter;stroke:rgb(78.431374%,87.058824%,96.862745%);stroke-opacity:1;stroke-miterlimit:4;" d="M 84.132812 118.390625 L 92.148438 92.96875 " transform="matrix(0.5,0,0,0.5,0,0)"/>
<path style=" stroke:none;fill-rule:nonzero;fill:url(#linear0);" d="M 39.746094 12.175781 C 34.097656 12.179688 28.964844 15.476562 26.613281 20.613281 C 25.082031 19.824219 23.386719 19.410156 21.664062 19.40625 C 15.957031 19.414062 11.230469 23.839844 10.851562 29.535156 C 10.839844 29.535156 10.828125 29.535156 10.816406 29.53125 C 7.847656 29.53125 5.304688 31.320312 4.1875 33.871094 L 3.582031 33.871094 L 3.582031 34.5 C 3.582031 40 7.5 44 13 44 L 49 44 C 56 44 60 39.5 60 33 L 60 32.425781 L 59.488281 32.425781 C 58.613281 29.953125 56.664062 28.007812 54.1875 27.136719 C 54.199219 26.972656 54.207031 26.804688 54.210938 26.640625 C 54.210938 18.652344 47.738281 12.175781 39.746094 12.175781 Z M 39.746094 12.175781 "/>
<path style=" stroke:none;fill-rule:nonzero;fill:rgb(38.431373%,62.7451%,91.764706%);fill-opacity:1;" d="M 39.746094 9.03125 C 34.097656 9.039062 28.96875 12.332031 26.613281 17.46875 C 25.082031 16.679688 23.386719 16.265625 21.664062 16.261719 C 15.957031 16.269531 11.230469 20.695312 10.851562 26.390625 C 10.839844 26.390625 10.828125 26.390625 10.816406 26.390625 C 6.820312 26.390625 3.578125 29.628906 3.578125 33.621094 C 3.578125 37.617188 6.820312 40.855469 10.816406 40.855469 L 51.320312 40.855469 C 56.113281 40.855469 60 36.96875 60 32.175781 C 59.996094 28.492188 57.664062 25.210938 54.1875 23.992188 C 54.199219 23.828125 54.207031 23.660156 54.210938 23.496094 C 54.210938 15.507812 47.738281 9.03125 39.746094 9.03125 Z M 39.746094 9.03125 "/>
</g>
</svg>
