<?xml version="1.0" encoding="UTF-8" standalone="no"?>
<svg
   xmlns:dc="http://purl.org/dc/elements/1.1/"
   xmlns:cc="http://creativecommons.org/ns#"
   xmlns:rdf="http://www.w3.org/1999/02/22-rdf-syntax-ns#"
   xmlns:svg="http://www.w3.org/2000/svg"
   xmlns="http://www.w3.org/2000/svg"
   xmlns:sodipodi="http://sodipodi.sourceforge.net/DTD/sodipodi-0.dtd"
   xmlns:inkscape="http://www.inkscape.org/namespaces/inkscape"
   height="64"
   viewBox="0 0 64 64"
   width="64"
   version="1.1"
   id="svg29"
   sodipodi:docname="weather-fog-small.svg"
   inkscape:version="1.0.1 (3bc2e813f5, 2020-09-07)">
  <metadata
     id="metadata35">
    <rdf:RDF>
      <cc:Work
         rdf:about="">
        <dc:format>image/svg+xml</dc:format>
        <dc:type
           rdf:resource="http://purl.org/dc/dcmitype/StillImage" />
        <dc:title></dc:title>
      </cc:Work>
    </rdf:RDF>
  </metadata>
  <defs
     id="defs33" />
  <sodipodi:namedview
     pagecolor="#ffffff"
     bordercolor="#666666"
     borderopacity="1"
     objecttolerance="10"
     gridtolerance="10"
     guidetolerance="10"
     inkscape:pageopacity="0"
     inkscape:pageshadow="2"
     inkscape:window-width="2560"
     inkscape:window-height="1018"
     id="namedview31"
     showgrid="false"
     inkscape:zoom="3.34375"
     inkscape:cx="55.209192"
     inkscape:cy="69.837429"
     inkscape:window-x="1920"
     inkscape:window-y="33"
     inkscape:window-maximized="1"
     inkscape:current-layer="svg29" />
  <linearGradient
     id="a"
     gradientUnits="userSpaceOnUse"
     x1="63.58112"
     x2="63.58112"
     y1="80.502037"
     y2="49.887589"
     gradientTransform="matrix(0.5000007,0,0,0.5000007,-8.3506109e-5,-2.6272205e-4)">
    <stop
       offset="0"
       stop-color="#eef4fc"
       id="stop2" />
    <stop
       offset="1"
       stop-color="#ffffff"
       id="stop4" />
  </linearGradient>
  <g
     fill="none"
     stroke-linecap="round"
     id="g23"
     transform="matrix(0.5000007,0,0,0.5000007,-8.3544604e-5,-2.6272572e-4)">
    <path
       d="M 19.773438,94.050781 H 90.140625"
       stroke="#99c1f1"
       stroke-width="4"
       id="path7" />
    <path
       d="M 19.773438,93.65625 H 90.140625"
       stroke="#c8def7"
       id="path9" />
    <path
       d="M 27.773438,102.05078 H 98.140625"
       stroke="#99c1f1"
       stroke-width="4"
       id="path11" />
    <path
       d="M 27.773438,101.65625 H 98.140625"
       stroke="#c8def7"
       id="path13" />
    <path
       d="M 23.773438,110.05078 H 94.140625"
       stroke="#99c1f1"
       stroke-width="4"
       id="path15" />
    <path
       d="M 23.773438,109.65625 H 94.140625"
       stroke="#c8def7"
       id="path17" />
    <path
       d="M 45.773438,118.05078 H 116.14063"
       stroke="#99c1f1"
       stroke-width="4"
       id="path19" />
    <path
       d="M 45.773438,117.65625 H 116.14063"
       stroke="#c8def7"
       id="path21" />
  </g>
  <path
     d="m 39.746066,12.173582 c -5.650399,0.0059 -10.779312,3.30274 -13.132831,8.439465 -1.531252,-0.789063 -3.226567,-1.203126 -4.949226,-1.207032 -5.707039,0.0078 -10.433608,4.4336 -10.812515,10.12892 -0.01172,0 -0.02539,0 -0.03711,-0.002 -2.9648475,0 -5.5097731,1.787112 -6.6269621,4.33985 H 3.5819525 v 0.626951 c 0,5.500008 3.9179745,9.500013 9.4179825,9.500013 h 36.000051 c 7.000007,0 11.000013,-4.500006 11.000013,-11.000015 v -0.572267 h -0.511716 c -0.876956,-2.474613 -2.824224,-4.419928 -5.300792,-5.291022 0.0117,-0.164064 0.01955,-0.330079 0.0254,-0.496095 0,-7.990246 -6.476569,-14.466818 -14.466815,-14.466818 z m 0,0"
     fill="#dceafa"
     id="path25"
     style="stroke-width:0.500001" />
  <path
     d="m 39.746066,9.031 c -5.650399,0.00586 -10.779312,3.302739 -13.132831,8.439465 -1.531252,-0.789064 -3.226567,-1.203127 -4.949226,-1.207033 -5.707039,0.0059 -10.433608,4.4336 -10.812515,10.12892 -0.01172,-0.0019 -0.02539,-0.0019 -0.03711,-0.0019 -3.9941459,0 -7.234385,3.238286 -7.234385,7.232433 0,3.996099 3.2402391,7.234385 7.234385,7.234385 h 40.505917 c 4.792978,0 8.679698,-3.886725 8.679698,-8.6797 -0.004,-3.685552 -2.333988,-6.966807 -5.812508,-8.183605 0.0117,-0.166016 0.01955,-0.332032 0.0254,-0.496095 0,-7.990245 -6.47657,-14.466817 -14.466815,-14.466817 z m 0,0"
     fill="url(#a)"
     id="path27"
     style="fill:url(#a);stroke-width:0.500001" />
</svg>
