<svg xmlns="http://www.w3.org/2000/svg" xmlns:xlink="http://www.w3.org/1999/xlink" height="128" width="128"><defs><linearGradient xlink:href="#a" id="b" x1="7.164" y1="56.174" x2="120" y2="56.174" gradientUnits="userSpaceOnUse"/><linearGradient id="a"><stop offset="0" stop-color="#144888"/><stop offset=".076" stop-color="#2378df"/><stop offset=".337" stop-color="#144888"/><stop offset=".504" stop-color="#f5c211"/><stop offset=".709" stop-color="#144888"/><stop offset=".885" stop-color="#144888"/><stop offset=".954" stop-color="#1c66c1"/><stop offset="1" stop-color="#144888"/></linearGradient></defs><path d="M79.492 24.348a28.926 28.926 0 00-26.265 16.879 21.711 21.711 0 00-9.899-2.415c-11.414.016-20.867 8.868-21.625 20.258-.023 0-.05 0-.074-.004-5.93 0-11.02 3.575-13.254 8.68h-1.21V69C7.164 80 15 88 26 88h72c14 0 22-9 22-22v-1.145h-1.023a17.36 17.36 0 00-10.602-10.582c.023-.328.04-.66.05-.992 0-15.98-12.952-28.933-28.933-28.933zm0 0" fill="url(#b)" transform="translate(0 2)"/><path d="M79.492 20.062a28.926 28.926 0 00-26.265 16.88 21.711 21.711 0 00-9.899-2.415c-11.414.012-20.867 8.868-21.625 20.258-.023-.004-.05-.004-.074-.004-7.988 0-14.469 6.477-14.469 14.465 0 7.992 6.48 14.469 14.469 14.469h81.012c9.586 0 17.359-7.774 17.359-17.36a17.358 17.358 0 00-11.625-16.367c.023-.332.04-.664.05-.992 0-15.98-12.952-28.934-28.933-28.934zm0 0" fill="#1c71d8"/><path d="M106.668 110.348L73.684 48.352c-.95-1.723-2.664-2.68-4.575-2.68s-3.632 1.148-4.597 2.871l-32.739 61.996c-.77 1.527-.78 3.633.168 5.164.95 1.531 2.477 2.297 4.387 2.297h65.723c1.91 0 3.636-.957 4.406-2.488.961-1.532.969-3.446.211-5.164zm0 0" fill="#ed333b"/><path d="M39.23 110.16c-.62 1.02-.007 1.84 1.02 1.84h57.887c1.027 0 1.648-.82 1.035-1.84L70.05 55.727c-.614-1.024-1.434-1.024-1.848 0zm0 0" fill="#fff"/><path d="M69.07 103.258c-2.015 0-3.566-1.578-3.566-3.63 0-2.206 1.394-3.628 3.566-3.628 2.168 0 3.41 1.422 3.567 3.629 0 2.05-1.399 3.629-3.567 3.629zM67.934 91.53l-1.965-15.719h6.203l-1.965 18.313zm0 0" fill="#121312"/></svg>