<?xml version="1.0" encoding="UTF-8"?>
<svg xmlns="http://www.w3.org/2000/svg" xmlns:xlink="http://www.w3.org/1999/xlink" width="64px" height="64px" viewBox="0 0 64 64" version="1.1">
<defs>
<linearGradient id="linear0" gradientUnits="userSpaceOnUse" x1="7.164" y1="86.174004" x2="120" y2="86.174004" gradientTransform="matrix(0.5,0,0,0.5,0,-19)">
<stop offset="0" style="stop-color:rgb(86.274511%,91.764706%,98.039216%);stop-opacity:1;"/>
<stop offset="0.081" style="stop-color:rgb(92.941177%,95.686275%,99.215686%);stop-opacity:1;"/>
<stop offset="0.151" style="stop-color:rgb(76.47059%,85.882354%,96.470588%);stop-opacity:1;"/>
<stop offset="0.793" style="stop-color:rgb(86.274511%,91.764706%,98.039216%);stop-opacity:1;"/>
<stop offset="0.917" style="stop-color:rgb(94.509804%,96.862745%,99.215686%);stop-opacity:1;"/>
<stop offset="1" style="stop-color:rgb(86.274511%,91.764706%,98.039216%);stop-opacity:1;"/>
</linearGradient>
<linearGradient id="linear1" gradientUnits="userSpaceOnUse" x1="63.581001" y1="110.501999" x2="63.581001" y2="79.888" gradientTransform="matrix(0.5,0,0,0.5,0,-19)">
<stop offset="0" style="stop-color:rgb(92.941177%,96.470588%,98.823529%);stop-opacity:1;"/>
<stop offset="1" style="stop-color:rgb(98.039216%,98.823529%,99.607843%);stop-opacity:1;"/>
</linearGradient>
<linearGradient id="linear2" gradientUnits="userSpaceOnUse" x1="7.164" y1="86.174004" x2="120" y2="86.174004" gradientTransform="matrix(0.5,0,0,0.5,0,-19)">
<stop offset="0" style="stop-color:rgb(86.274511%,91.764706%,98.039216%);stop-opacity:1;"/>
<stop offset="0.081" style="stop-color:rgb(92.941177%,95.686275%,99.215686%);stop-opacity:1;"/>
<stop offset="0.151" style="stop-color:rgb(76.47059%,85.882354%,96.470588%);stop-opacity:1;"/>
<stop offset="0.793" style="stop-color:rgb(86.274511%,91.764706%,98.039216%);stop-opacity:1;"/>
<stop offset="0.917" style="stop-color:rgb(94.509804%,96.862745%,99.215686%);stop-opacity:1;"/>
<stop offset="1" style="stop-color:rgb(86.274511%,91.764706%,98.039216%);stop-opacity:1;"/>
</linearGradient>
</defs>
<g id="surface1">
<path style=" stroke:none;fill-rule:nonzero;fill:rgb(38.431373%,62.7451%,91.764706%);fill-opacity:1;" d="M 22 44 L 16 50 L 16.011719 50.007812 C 15 51.007812 14.695312 52.523438 15.238281 53.839844 C 15.777344 55.15625 17.0625 56.015625 18.484375 56.015625 C 20.425781 56.015625 22 54.441406 22 52.5 Z M 35.011719 47.988281 L 29.011719 53.988281 L 29.027344 53.992188 C 28.015625 54.992188 27.710938 56.507812 28.25 57.824219 C 28.792969 59.140625 30.074219 60 31.5 60 C 33.441406 60 35.015625 58.425781 35.011719 56.488281 Z M 46 42.992188 L 41.753906 47.238281 L 41.765625 47.242188 C 41.046875 47.949219 40.832031 49.023438 41.214844 49.953125 C 41.597656 50.882812 42.507812 51.492188 43.515625 51.492188 C 44.886719 51.492188 46 50.378906 46 49.007812 Z M 46 42.992188 "/>
<path style=" stroke:none;fill-rule:nonzero;fill:rgb(60.000002%,75.686276%,94.509804%);fill-opacity:1;" d="M 18 52 C 18 52.550781 17.550781 53 17 53 C 16.449219 53 16 52.550781 16 52 C 16 51.449219 16.449219 51 17 51 C 17.550781 51 18 51.449219 18 52 Z M 31 56 C 31 56.550781 30.550781 57 30 57 C 29.449219 57 29 56.550781 29 56 C 29 55.449219 29.449219 55 30 55 C 30.550781 55 31 55.449219 31 56 Z M 43.160156 48.308594 C 43.160156 48.699219 42.84375 49.015625 42.453125 49.015625 C 42.074219 49.003906 41.769531 48.691406 41.769531 48.308594 C 41.769531 47.929688 42.074219 47.617188 42.453125 47.601562 C 42.84375 47.601562 43.160156 47.917969 43.160156 48.308594 Z M 43.160156 48.308594 "/>
<path style=" stroke:none;fill-rule:nonzero;fill:url(#linear0);" d="M 39.746094 8.175781 C 34.097656 8.179688 28.964844 11.476562 26.613281 16.613281 C 25.082031 15.824219 23.386719 15.410156 21.664062 15.40625 C 15.957031 15.414062 11.230469 19.839844 10.851562 25.535156 C 10.839844 25.535156 10.828125 25.535156 10.816406 25.53125 C 7.847656 25.53125 5.304688 27.320312 4.1875 29.871094 L 3.582031 29.871094 L 3.582031 30.5 C 3.582031 36 7.5 40 13 40 L 49 40 C 56 40 60 35.5 60 29 L 60 28.425781 L 59.488281 28.425781 C 58.613281 25.953125 56.664062 24.007812 54.1875 23.136719 C 54.199219 22.972656 54.207031 22.804688 54.210938 22.640625 C 54.210938 14.652344 47.738281 8.175781 39.746094 8.175781 Z M 39.746094 8.175781 "/>
<path style=" stroke:none;fill-rule:nonzero;fill:url(#linear1);" d="M 39.746094 5.03125 C 34.097656 5.039062 28.96875 8.332031 26.613281 13.46875 C 25.082031 12.679688 23.386719 12.265625 21.664062 12.261719 C 15.957031 12.269531 11.230469 16.695312 10.851562 22.390625 C 10.839844 22.390625 10.828125 22.390625 10.816406 22.390625 C 6.820312 22.390625 3.578125 25.628906 3.578125 29.621094 C 3.578125 33.617188 6.820312 36.855469 10.816406 36.855469 L 51.320312 36.855469 C 56.113281 36.855469 60 32.96875 60 28.175781 C 59.996094 24.492188 57.664062 21.210938 54.1875 19.992188 C 54.199219 19.828125 54.207031 19.660156 54.210938 19.496094 C 54.210938 11.507812 47.738281 5.03125 39.746094 5.03125 Z M 39.746094 5.03125 "/>
<path style=" stroke:none;fill-rule:nonzero;fill:url(#linear2);" d="M 39.746094 4.03125 C 34.097656 4.039062 28.96875 7.332031 26.613281 12.46875 C 25.082031 11.679688 23.386719 11.265625 21.664062 11.261719 C 15.957031 11.269531 11.230469 15.695312 10.851562 21.390625 C 10.839844 21.390625 10.828125 21.390625 10.816406 21.390625 C 6.820312 21.390625 3.578125 24.628906 3.578125 28.621094 C 3.578125 28.792969 3.59375 28.957031 3.605469 29.121094 C 3.863281 25.363281 6.988281 22.390625 10.816406 22.390625 C 10.824219 22.390625 10.839844 22.390625 10.851562 22.390625 C 11.230469 16.695312 15.957031 12.269531 21.664062 12.261719 C 23.386719 12.265625 25.082031 12.679688 26.613281 13.46875 C 28.964844 8.332031 34.097656 5.035156 39.746094 5.03125 C 47.511719 5.03125 53.84375 11.148438 54.195312 18.824219 C 54.203125 18.714844 54.210938 18.605469 54.214844 18.496094 C 54.214844 10.507812 47.738281 4.03125 39.746094 4.03125 Z M 54.199219 19 C 54.207031 19.164062 54.214844 19.332031 54.214844 19.496094 C 54.207031 19.660156 54.199219 19.828125 54.1875 19.992188 C 57.472656 21.144531 59.75 24.144531 59.976562 27.617188 C 59.984375 27.472656 60 27.328125 60 27.179688 C 59.996094 23.496094 57.671875 20.21875 54.199219 19 Z M 54.199219 19 "/>
</g>
</svg>
