<?xml version="1.0" encoding="UTF-8"?>
<svg width="64" height="64" version="1.1" viewBox="0 0 64 64" xmlns="http://www.w3.org/2000/svg">
    <linearGradient id="a" x1="-16.419" x2="-16.419" y1="80.502" y2="49.888" gradientTransform="matrix(.5 0 0 .5 -8.3506e-5 -.00026272)" gradientUnits="userSpaceOnUse">
        <stop stop-color="#62a0ea" offset="0"/>
        <stop stop-color="#99c1f1" offset="1"/>
    </linearGradient>
    <g stroke-width=".5">
        <path d="m39.746 12.174c-5.6504 0.0059-10.779 3.3027-13.133 8.4395-1.5313-0.78906-3.2266-1.2031-4.9492-1.207-5.707 0.0078-10.434 4.4336-10.813 10.129-0.01172 0-0.02539 0-0.03711-2e-3 -2.9648 0-5.5098 1.7871-6.627 4.3398h-0.60547v0.62695c0 5.5 3.918 9.5 9.418 9.5h36c7 0 11-4.5 11-11v-0.57227h-0.51172c-0.87696-2.4746-2.8242-4.4199-5.3008-5.291 0.0117-0.16406 0.01955-0.33008 0.0254-0.4961 0-7.9902-6.4766-14.467-14.467-14.467z" fill="#3584e4"/>
        <path d="m39.746 9.031c-5.6504 0.00586-10.779 3.3027-13.133 8.4395-1.5313-0.78906-3.2266-1.2031-4.9492-1.207-5.707 0.0059-10.434 4.4336-10.813 10.129-0.01172-0.0019-0.02539-0.0019-0.03711-0.0019-3.9941 0-7.2344 3.2383-7.2344 7.2324 0 3.9961 3.2402 7.2344 7.2344 7.2344h40.506c4.793 0 8.6797-3.8867 8.6797-8.6797-4e-3 -3.6856-2.334-6.9668-5.8125-8.1836 0.0117-0.16602 0.01955-0.33203 0.0254-0.4961 0-7.9902-6.4766-14.467-14.467-14.467z" fill="url(#a)"/>
        <path d="m53.334 55.174-16.492-30.998c-0.47461-0.86133-1.332-1.3398-2.2871-1.3398-0.95508 0-1.8164 0.57422-2.2988 1.4355l-16.369 30.998c-0.38477 0.76368-0.39063 1.8164 0.08398 2.582 0.47461 0.76563 1.2383 1.1484 2.1934 1.1484h32.861c0.95508 0 1.8184-0.47852 2.2031-1.2441 0.48047-0.76563 0.48438-1.7227 0.10547-2.582z" fill="#ed333b"/>
        <path d="m19.615 55.08c-0.31055 0.50977-0.0039 0.91992 0.50977 0.91992h28.943c0.51367 0 0.82422-0.41016 0.51758-0.91992l-14.561-27.217c-0.30664-0.51172-0.7168-0.51172-0.92383 0z" fill="#fff"/>
        <path d="m34.535 51.629c-1.0078 0-1.7832-0.78906-1.7832-1.8145 0-1.1035 0.69727-1.8145 1.7832-1.8145 1.084 0 1.7051 0.71094 1.7832 1.8145 0 1.0254-0.69922 1.8145-1.7832 1.8145zm-0.56836-5.8633-0.98242-7.8594h3.1016l-0.98242 9.1563z" fill="#121312"/>
    </g>
</svg>
