<?xml version="1.0" encoding="UTF-8"?>
<svg height="128px" viewBox="0 0 128 128" width="128px" xmlns="http://www.w3.org/2000/svg" xmlns:xlink="http://www.w3.org/1999/xlink">
    <linearGradient id="a" gradientUnits="userSpaceOnUse" x1="63.581118" x2="63.581118" y1="72.50203800792" y2="41.887587">
        <stop offset="0" stop-color="#eef4fc"/>
        <stop offset="1" stop-color="#ffffff"/>
    </linearGradient>
    <path d="m 79.492188 16.347656 c -11.300782 0.011719 -21.558594 6.605469 -26.265626 16.878906 c -3.0625 -1.578124 -6.453124 -2.40625 -9.898437 -2.414062 c -11.414063 0.015625 -20.867187 8.867188 -21.625 20.257812 c -0.023437 0 -0.050781 0 -0.074219 -0.003906 c -5.929687 0 -11.019531 3.574219 -13.253906 8.679688 h -1.210938 v 1.253906 c 0 11 7.835938 19 18.835938 19 h 72 c 14 0 22 -9 22 -22 v -1.144531 h -1.023438 c -1.753906 -4.949219 -5.648437 -8.839844 -10.601562 -10.582031 c 0.023438 -0.328126 0.039062 -0.660157 0.050781 -0.992188 c 0 -15.980469 -12.953125 -28.933594 -28.933593 -28.933594 z m 0 0" fill="#dceafa"/>
    <path d="m 79.492188 10.0625 c -11.300782 0.011719 -21.558594 6.605469 -26.265626 16.878906 c -3.0625 -1.578125 -6.453124 -2.40625 -9.898437 -2.414062 c -11.414063 0.011718 -20.867187 8.867187 -21.625 20.257812 c -0.023437 -0.003906 -0.050781 -0.003906 -0.074219 -0.003906 c -7.988281 0 -14.46875 6.476562 -14.46875 14.464844 c 0 7.992187 6.480469 14.46875 14.46875 14.46875 h 81.011719 c 9.585937 0 17.359375 -7.773438 17.359375 -17.359375 c -0.007812 -7.371094 -4.667969 -13.933594 -11.625 -16.367188 c 0.023438 -0.332031 0.039062 -0.664062 0.050781 -0.992187 c 0 -15.980469 -12.953125 -28.933594 -28.933593 -28.933594 z m 0 0" fill="url(#a)"/>
    <g fill="#62a0ea">
        <path d="m 44 88 l -12 12 l 0.027344 0.011719 c -1.332032 1.320312 -2.082032 3.113281 -2.082032 4.988281 c 0 3.882812 3.144532 7.027344 7.027344 7.027344 c 3.882813 0 7.027344 -3.144532 7.027344 -7.027344 z m 0 0"/>
        <path d="m 70.027344 95.972656 l -12 12 l 0.027344 0.011719 c -1.332032 1.320313 -2.082032 3.113281 -2.082032 4.988281 c 0 3.882813 3.144532 7.027344 7.027344 7.027344 s 7.027344 -3.144531 7.027344 -7.027344 z m 0 0"/>
        <path d="m 92 85.984375 l -8.492188 8.492187 l 0.019532 0.007813 c -0.941406 0.933594 -1.46875 2.203125 -1.472656 3.53125 c 0 2.746094 2.226562 4.96875 4.972656 4.96875 s 4.972656 -2.222656 4.972656 -4.96875 z m 0 0"/>
    </g>
    <path d="m 36 104 c 0 1.105469 -0.894531 2 -2 2 s -2 -0.894531 -2 -2 s 0.894531 -2 2 -2 s 2 0.894531 2 2 z m 0 0" fill="#99c1f1"/>
    <path d="m 62 112 c 0 1.105469 -0.894531 2 -2 2 s -2 -0.894531 -2 -2 s 0.894531 -2 2 -2 s 2 0.894531 2 2 z m 0 0" fill="#99c1f1"/>
    <path d="m 86.320312 96.617188 c 0 0.78125 -0.632812 1.417968 -1.414062 1.417968 s -1.414062 -0.636718 -1.414062 -1.417968 s 0.632812 -1.414063 1.414062 -1.414063 s 1.414062 0.632813 1.414062 1.414063 z m 0 0" fill="#99c1f1"/>
</svg>
