<?xml version="1.0" encoding="UTF-8"?>
<svg width="64" height="64" version="1.1" viewBox="0 0 64 64" xmlns="http://www.w3.org/2000/svg">
    <linearGradient id="a" x1="63.581" x2="63.581" y1="72.502" y2="41.888" gradientTransform="matrix(.5 0 0 .5 -8.3506e-5 3.9997)" gradientUnits="userSpaceOnUse">
        <stop stop-color="#eef4fc" offset="0"/>
        <stop stop-color="#fff" offset="1"/>
    </linearGradient>
    <path d="m39.746 12.174c-5.6504 0.0059-10.779 3.3027-13.133 8.4395-1.5313-0.78906-3.2266-1.2031-4.9492-1.207-5.707 0.0078-10.434 4.4336-10.813 10.129-0.01172 0-0.02539 0-0.03711-2e-3 -2.9648 0-5.5098 1.7871-6.627 4.3398h-0.60547v0.62695c0 5.5 3.918 9.5 9.418 9.5h36c7 0 11-4.5 11-11v-0.57227h-0.51172c-0.87696-2.4746-2.8242-4.4199-5.3008-5.291 0.0117-0.16406 0.01955-0.33008 0.0254-0.4961 0-7.9902-6.4766-14.467-14.467-14.467z" fill="#dceafa" stroke-width=".5"/>
    <path d="m39.746 9.031c-5.6504 0.00586-10.779 3.3027-13.133 8.4395-1.5313-0.78906-3.2266-1.2031-4.9492-1.207-5.707 0.0059-10.434 4.4336-10.813 10.129-0.01172-0.0019-0.02539-0.0019-0.03711-0.0019-3.9941 0-7.2344 3.2383-7.2344 7.2324 0 3.9961 3.2402 7.2344 7.2344 7.2344h40.506c4.793 0 8.6797-3.8867 8.6797-8.6797-4e-3 -3.6856-2.334-6.9668-5.8125-8.1836 0.0117-0.16602 0.01955-0.33203 0.0254-0.4961 0-7.9902-6.4766-14.467-14.467-14.467z" fill="url(#a)" stroke-width=".5"/>
    <g transform="matrix(.5 0 0 .5 -8.3545e-5 3.9997)" fill="#62a0ea">
        <path d="m44 88-12 12 0.02734 0.0117c-1.332 1.3203-2.082 3.1133-2.082 4.9883 0 3.8828 3.1445 7.0273 7.0273 7.0273 3.8828 2e-5 7.0273-3.1445 7.0273-7.0273z"/>
        <path d="m70.027 95.973-12 12 0.02734 0.0117c-1.332 1.3203-2.082 3.1133-2.082 4.9883 0 3.8828 3.1445 7.0273 7.0273 7.0273s7.0273-3.1445 7.0273-7.0273z"/>
        <path d="m92 85.984-8.4922 8.4922 0.01953 0.0078c-0.94141 0.93359-1.4688 2.2031-1.4727 3.5312 0 2.7461 2.2266 4.9688 4.9727 4.9688s4.9727-2.2227 4.9727-4.9688z"/>
    </g>
    <g fill="#99c1f1" stroke-width=".5">
        <path d="m18 56c0 0.55274-0.44727 1-1 1-0.55274 0-1-0.44727-1-1s0.44727-1 1-1c0.55274 0 1 0.44726 1 1z"/>
        <path d="m31 60c0 0.55274-0.44727 1-1 1-0.55274 0-1-0.44726-1-1s0.44727-1 1-1c0.55274 0 1 0.44727 1 1z"/>
        <path d="m43.16 52.308c0 0.39063-0.31641 0.70898-0.70703 0.70898-0.39062 0-0.70703-0.31836-0.70703-0.70898s0.31641-0.70703 0.70703-0.70703c0.39063 0 0.70703 0.31641 0.70703 0.70703z"/>
    </g>
</svg>
